<svg viewBox="0 0 249.95 250" xmlns="http://www.w3.org/2000/svg">
    <path d="m.21.02h249.3c0 .38.02.76.02 1.14v247.23c0 1.61.2 1.37-1.37 1.37-43.11 0-86.21 0-129.32 0-39.19 0-78.38 0-117.57.02-1.04 0-1.3-.24-1.3-1.3.03-82.4.03-164.81.04-247.22 0-.41-.23-.89.2-1.24zm207.37 135.98c.75-.71 1.31-1.15 1.75-1.67 3.5-4.18 5.24-9 5.04-14.46-.27-7.43-3.86-12.73-10.59-15.79-5.26-2.38-10.83-2.75-16.47-1.85-6.49 1.04-11.96 4.04-16.15 9.15-4.24 5.17-6.08 11.19-5.85 17.84.18 4.99 2.05 9.22 5.88 12.48 3.94 3.36 8.67 4.86 13.69 4.98 9.14.21 18.29.07 27.44.09.49 0 .74-.12.83-.66.54-3.24 1.09-6.48 1.71-9.71.14-.75.02-.86-.71-.8-2.09.17-4.18.26-6.56.4zm-81.63-32.99c-4.61 0-9.08.02-13.54-.02-.8 0-1.06.25-1.19 1.01-.74 4.36-1.54 8.72-2.3 13.08-.12.67-.35.96-1.13.95-3.6-.05-7.21-.04-10.81 0-.8 0-.98-.17-.83-.99.83-4.35 1.59-8.71 2.38-13.06.12-.66.07-.99-.77-.98-4.23.04-8.45.03-12.68 0-.66 0-.86.22-.97.86-.92 5.28-1.88 10.55-2.83 15.83-1.56 8.72-3.1 17.43-4.69 26.14-.13.73-.06.97.74.96 4.23-.03 8.45-.03 12.68 0 .67 0 .95-.15 1.08-.88.86-5.08 1.79-10.15 2.68-15.22.09-.54.27-.77.86-.77 3.74.02 7.48.02 11.22 0 .69 0 .78.19.66.84-.91 4.97-1.75 9.94-2.67 14.91-.16.86-.06 1.13.88 1.12 4.12-.05 8.25-.04 12.37 0 .82 0 1.1-.24 1.25-1.06 1.47-8.38 2.99-16.75 4.49-25.12 1.04-5.82 2.07-11.65 3.12-17.6zm16.03 43.76c4.78 0 9.56-.02 14.34.02.84 0 1.19-.18 1.33-1.08.51-3.24 1.09-6.48 1.73-9.7.19-.95 0-1.16-.96-1.15-5.06.05-10.12 0-15.17.04-.7 0-.93-.19-.77-.88.21-.91.45-1.83.51-2.75.05-.85.43-.99 1.18-.99 4.26.03 8.52 0 12.78.02.58 0 .95-.06 1.07-.77.52-3.07 1.07-6.13 1.66-9.19.18-.91.05-1.23-.99-1.22-4.12.06-8.25-.01-12.37.05-1.02.02-1.17-.33-.96-1.18.17-.71.32-1.42.39-2.14s.33-.97 1.1-.97c4.54.04 9.08 0 13.61.04.71 0 .95-.24 1.06-.89.56-3.31 1.08-6.62 1.76-9.91.23-1.12-.17-1.15-1.04-1.14-8.45.02-16.91.01-25.36.01q-2.52 0-2.96 2.44c-2.38 13.42-4.76 26.83-7.18 40.24-.16.91-.04 1.1.88 1.1 4.78-.04 9.56-.02 14.34-.02zm-85.96 1.25c1.36.04 2.7-.05 4.04-.22 4.94-.62 9.44-2.3 13.33-5.5.47-.38.56-.64.19-1.17-2.11-3.05-4.18-6.11-6.24-9.19-.36-.54-.57-.55-1.08-.13-2.37 1.98-5.07 3.02-8.22 2.86-3.91-.2-6.9-2.72-7.28-6.4-.37-3.62.51-6.95 2.86-9.8 3.57-4.34 10.51-4.74 14.39-.81.41.42.57.28.88-.03 3.03-3.1 6.06-6.19 9.11-9.27.43-.43.36-.69-.05-1.08-1.04-.98-2.18-1.82-3.43-2.5-5.18-2.82-10.74-3.46-16.5-2.8-5.75.66-10.8 2.95-14.94 7-6.61 6.45-9.11 14.41-7.9 23.48.65 4.86 2.97 8.88 7.08 11.74 4.15 2.89 8.83 3.82 13.77 3.82z"
            fill="#ed1b73" />
    <path d="m.21.02c-.43.35-.2.83-.2 1.24-.01 82.41-.01 164.82-.04 247.23 0 1.06.26 1.3 1.3 1.3 39.19-.03 78.38-.02 117.57-.02h129.32c1.57 0 1.37.24 1.37-1.37 0-82.41 0-164.82 0-247.23 0-.38-.01-.76-.02-1.14.13.09.44-.2.42.21-.01.24 0 .49 0 .73 0 82.7 0 165.39.02 248.09 0 .78-.18.96-.95.96-83-.02-165.99-.02-248.99-.02 0-83.01 0-166.02.01-249.02 0-.3-.24-.71.2-.94z"
            fill="#feeced" />
    <path d="m207.58 136c2.38-.14 4.47-.23 6.56-.4.73-.06.85.06.71.8-.62 3.23-1.17 6.47-1.71 9.71-.09.54-.33.67-.83.66-9.15-.02-18.3.12-27.44-.09-5.03-.12-9.76-1.62-13.69-4.98-3.83-3.27-5.7-7.49-5.88-12.48-.23-6.66 1.61-12.67 5.85-17.84 4.19-5.11 9.66-8.11 16.15-9.15 5.64-.9 11.22-.53 16.47 1.85 6.73 3.05 10.32 8.36 10.59 15.79.2 5.45-1.54 10.28-5.04 14.46-.44.53-.99.96-1.75 1.67zm-8.34-12.67c.02-2.58-.45-4.57-2.02-6.14-2.36-2.35-5.26-2.8-8.36-2.15-4.57.96-7.99 5.14-8.4 10.03-.3 3.57.47 6.69 3.93 8.43 3.01 1.51 6.12 1.38 9.05-.25 4.01-2.24 5.6-5.93 5.79-9.92z"
            fill="#fffefe" />
    <path d="m125.95 103.01c-1.06 5.96-2.08 11.78-3.12 17.6-1.5 8.37-3.02 16.75-4.49 25.12-.14.82-.43 1.06-1.25 1.06-4.12-.04-8.25-.05-12.37 0-.94.01-1.04-.26-.88-1.12.92-4.96 1.76-9.94 2.67-14.91.12-.66.03-.85-.66-.84-3.74.03-7.48.02-11.22 0-.58 0-.76.23-.86.77-.88 5.08-1.81 10.14-2.68 15.22-.12.72-.41.88-1.08.88-4.23-.03-8.45-.03-12.68 0-.8 0-.87-.24-.74-.96 1.58-8.71 3.13-17.43 4.69-26.14.94-5.28 1.91-10.55 2.83-15.83.11-.64.31-.86.97-.86 4.23.03 8.45.04 12.68 0 .84 0 .89.32.77.98-.8 4.35-1.55 8.72-2.38 13.06-.16.82.03 1 .83.99 3.6-.04 7.21-.05 10.81 0 .78.01 1.01-.28 1.13-.95.76-4.36 1.56-8.71 2.3-13.08.13-.76.39-1.02 1.19-1.01 4.46.04 8.93.02 13.54.02z"
            fill="#fffeff" />
    <path d="m141.98 146.77c-4.78 0-9.56-.02-14.34.02-.91 0-1.04-.19-.88-1.1 2.42-13.41 4.79-26.83 7.18-40.24q.43-2.45 2.96-2.44c8.45 0 16.91 0 25.36-.01.87 0 1.27.02 1.04 1.14-.68 3.28-1.2 6.6-1.76 9.91-.11.65-.34.9-1.06.89-4.54-.04-9.08 0-13.61-.04-.77 0-1.03.25-1.1.97s-.22 1.44-.39 2.14c-.2.85-.06 1.2.96 1.18 4.12-.07 8.25.01 12.37-.05 1.04-.02 1.17.31.99 1.22-.59 3.06-1.14 6.12-1.66 9.19-.12.7-.49.77-1.07.77-4.26-.02-8.52 0-12.78-.02-.75 0-1.12.13-1.18.99-.06.92-.3 1.84-.51 2.75-.16.69.06.88.77.88 5.06-.03 10.12.01 15.17-.04.96 0 1.15.2.96 1.15-.64 3.22-1.22 6.46-1.73 9.7-.14.9-.48 1.09-1.33 1.08-4.78-.04-9.56-.02-14.34-.02z"
            fill="#fffefe" />
    <path d="m56.02 148.02c-4.94 0-9.62-.93-13.77-3.82-4.11-2.86-6.43-6.88-7.08-11.74-1.21-9.07 1.29-17.02 7.9-23.48 4.14-4.05 9.19-6.34 14.94-7 5.76-.66 11.32-.01 16.5 2.8 1.25.68 2.39 1.52 3.43 2.5.41.38.48.64.05 1.08-3.05 3.08-6.08 6.17-9.11 9.27-.31.31-.47.44-.88.03-3.88-3.94-10.82-3.53-14.39.81-2.35 2.86-3.23 6.18-2.86 9.8.38 3.68 3.37 6.2 7.28 6.4 3.14.16 5.85-.88 8.22-2.86.5-.42.71-.41 1.08.13 2.06 3.08 4.13 6.15 6.24 9.19.37.53.27.79-.19 1.17-3.89 3.2-8.38 4.88-13.33 5.5-1.34.17-2.69.26-4.04.22z"
            fill="#fffefe" />
    <path d="m199.24 123.33c-.19 3.99-1.78 7.68-5.79 9.92-2.93 1.63-6.04 1.77-9.05.25-3.46-1.74-4.23-4.85-3.93-8.43.41-4.89 3.83-9.07 8.4-10.03 3.09-.65 6-.2 8.36 2.15 1.57 1.57 2.04 3.56 2.02 6.14z"
            fill="#ed1d74" />
</svg>